HIERARCHY
ROOT Hips
{
 OFFSET 0.000000 0.000000 0.000000
 CHANNELS 6 Xposition Yposition Zposition Yrotation Xrotation Zrotation
 JOINT Chest
 {
  OFFSET 0.000000 9.585900 0.002600
  CHANNELS 3 Yrotation Xrotation Zrotation
  JOINT Chest2
  {
   OFFSET 0.000000 9.601200 -0.005300
   CHANNELS 3 Yrotation Xrotation Zrotation
   JOINT Chest3
   {
    OFFSET 0.000000 9.561800 0.000000
    CHANNELS 3 Yrotation Xrotation Zrotation
    JOINT Chest4
    {
     OFFSET 0.000000 9.552100 0.000000
     CHANNELS 3 Yrotation Xrotation Zrotation
     JOINT Neck
     {
      OFFSET 0.000000 14.453000 0.000000
      CHANNELS 3 Yrotation Xrotation Zrotation
      JOINT Head
      {
       OFFSET 0.000000 8.936500 -0.011300
       CHANNELS 3 Yrotation Xrotation Zrotation
       End Site
       {
        OFFSET 0.000000 17.073600 -0.006000
       }
      }
     }
     JOINT RightCollar
     {
      OFFSET -2.921100 9.558500 0.000000
      CHANNELS 3 Yrotation Xrotation Zrotation
      JOINT RightShoulder
      {
       OFFSET -13.519700 0.000000 0.000000
       CHANNELS 3 Yrotation Xrotation Zrotation
       JOINT RightElbow
       {
        OFFSET 0.000000 -29.696600 0.000000
        CHANNELS 3 Yrotation Xrotation Zrotation
        JOINT RightWrist
        {
         OFFSET 0.000000 -24.004700 0.000000
         CHANNELS 3 Yrotation Xrotation Zrotation
         End Site
         {
          OFFSET 0.000000 -17.728500 0.000000
         }
        }
       }
      }
     }
     JOINT LeftCollar
     {
      OFFSET 2.921100 9.558500 0.000000
      CHANNELS 3 Yrotation Xrotation Zrotation
      JOINT LeftShoulder
      {
       OFFSET 13.519700 0.000000 0.000000
       CHANNELS 3 Yrotation Xrotation Zrotation
       JOINT LeftElbow
       {
        OFFSET 0.000000 -29.696600 0.000000
        CHANNELS 3 Yrotation Xrotation Zrotation
        JOINT LeftWrist
        {
         OFFSET 0.000000 -24.004700 0.000000
         CHANNELS 3 Yrotation Xrotation Zrotation
         End Site
         {
          OFFSET 0.000000 -17.728500 0.000000
         }
        }
       }
      }
     }
    }
   }
  }
 }
 JOINT RightHip
 {
  OFFSET -7.771700 -0.012900 -0.001300
  CHANNELS 3 Yrotation Xrotation Zrotation
  JOINT RightKnee
  {
   OFFSET 0.000000 -40.869800 0.001200
   CHANNELS 3 Yrotation Xrotation Zrotation
   JOINT RightAnkle
   {
    OFFSET 0.000000 -39.717900 0.002100
    CHANNELS 3 Yrotation Xrotation Zrotation
    JOINT RightToe
    {
     OFFSET 0.000000 -4.965400 11.033500
     CHANNELS 3 Yrotation Xrotation Zrotation
     End Site
     {
      OFFSET 0.000000 -1.423100 5.872300
     }
    }
   }
  }
 }
 JOINT LeftHip
 {
  OFFSET 7.771700 -0.012900 -0.001300
  CHANNELS 3 Yrotation Xrotation Zrotation
  JOINT LeftKnee
  {
   OFFSET 0.000000 -40.869800 0.001200
   CHANNELS 3 Yrotation Xrotation Zrotation
   JOINT LeftAnkle
   {
    OFFSET 0.000000 -39.717900 0.002100
    CHANNELS 3 Yrotation Xrotation Zrotation
    JOINT LeftToe
    {
     OFFSET 0.000000 -4.965400 11.033500
     CHANNELS 3 Yrotation Xrotation Zrotation
     End Site
     {
      OFFSET 0.000000 -1.423100 5.872300
     }
    }
   }
  }
 }
}
MOTION
Frames: 8
Frame Time: 0.008333
0.000000 85.388000 0.000000 0.000000 -5.767877 0.000000 0.000000 11.653817 0.000000 0.000000 -5.885947 0.000000 0.000000 -0.000000 0.000000 0.000000 -0.000000 0.000000 0.000000 12.528835 0.000000 0.000000 0.711642 0.000000 0.000000 -0.000000 0.000000 0.000000 0.000000 -90.000000 0.000000 -2.309062 0.000000 0.000000 2.309062 0.000000 0.000000 -0.000000 0.000000 0.000000 -0.000000 90.000000 0.000000 -2.309062 0.000000 0.000000 2.309062 0.000000 0.000000 8.520406 0.000000 0.000000 1.905762 0.000000 -0.000000 -4.658285 0.000000 0.000000 -0.000000 0.000000 0.000000 8.520406 0.000000 0.000000 1.905762 0.000000 -0.000000 -4.658285 0.000000 0.000000 -0.000000 0.000000
-55.029436 57.708974 11.054519 177.976792 -42.508178 -2.734188 3.521829 22.437900 3.076630 1.773914 12.874341 1.606767 2.277043 16.054876 2.093422 1.768180 12.858432 1.609990 0.497156 8.080324 3.586585 -0.790895 -20.723985 6.828965 2.164944 3.128764 -0.457041 -3.847201 -17.423913 -9.084795 -29.600418 -17.626939 92.540014 -13.960256 -10.269055 -28.616691 -10.461229 -0.552422 -1.646896 -3.129049 -16.558592 14.371073 30.112286 -28.150784 -81.695329 18.125013 -0.099799 16.452235 5.878718 -28.990969 -3.609553 -34.657401 75.422699 -39.662253 6.339359 -16.558282 12.968691 0.021669 -0.173642 0.015863 -6.538294 -26.425106 5.114700 88.620413 80.949429 89.466661 0.831392 -22.208882 -19.081704 0.054968 0.111957 0.021800
-55.032000 57.708132 11.054064 177.997747 -42.482716 -2.745831 3.524027 22.447798 3.072324 1.770075 12.857148 1.611315 2.278810 16.052123 2.092865 1.766594 12.852220 1.610489 0.520264 8.045445 3.570032 -0.745588 -20.798248 6.791457 2.162607 3.125817 -0.449548 -3.838566 -17.400475 -9.093502 -29.615774 -17.641592 92.553611 -13.963543 -10.271373 -28.618750 -10.450189 -0.542100 -1.652708 -3.147490 -16.570270 14.384483 30.108002 -28.148895 -81.700241 18.121196 -0.102830 16.456267 5.870493 -29.010589 -3.615162 -34.677209 75.420002 -39.684969 6.348906 -16.567664 12.975945 0.022769 -0.169118 0.014116 -6.548690 -26.452928 5.107690 88.632417 80.945478 89.485146 0.835952 -22.210379 -19.082536 0.053762 0.115363 0.021325
-55.034907 57.708951 11.051550 178.006183 -42.469318 -2.747372 3.528443 22.455141 3.071408 1.768140 12.850595 1.611364 2.283247 16.054567 2.091634 1.768843 12.851384 1.611828 0.524973 8.016549 3.564935 -0.671794 -20.884253 6.734906 2.162163 3.136101 -0.442353 -3.825761 -17.378738 -9.117652 -29.646766 -17.659373 92.589966 -13.957215 -10.276169 -28.619222 -10.454764 -0.550183 -1.647221 -3.144414 -16.568940 14.382635 30.099740 -28.154837 -81.704350 18.121368 -0.107460 16.458422 5.868829 -29.019175 -3.621952 -34.712288 75.410301 -39.720375 6.358774 -16.566858 12.982133 0.014786 -0.165828 0.010232 -6.546988 -26.466104 5.099384 88.624731 80.941532 89.481871 0.835513 -22.210061 -19.081205 0.051127 0.116062 0.021393
-55.037902 57.708711 11.050003 178.016439 -42.444077 -2.749604 3.520253 22.435700 3.065917 1.768487 12.850155 1.611369 2.283678 16.054038 2.091709 1.780968 12.870516 1.607723 0.528920 7.980719 3.561738 -0.589335 -20.968344 6.674001 2.150503 3.116512 -0.434616 -3.819544 -17.371937 -9.125046 -29.644067 -17.645080 92.598672 -13.973553 -10.269962 -28.620184 -10.455852 -0.556901 -1.650409 -3.151142 -16.566826 14.382564 30.093113 -28.172072 -81.702510 18.133853 -0.108257 16.461470 5.869755 -29.041478 -3.630071 -34.721871 75.409830 -39.731563 6.356026 -16.566753 12.988327 0.003894 -0.165696 0.008542 -6.549354 -26.492306 5.093616 88.625110 80.946531 89.486240 0.840332 -22.211430 -19.082898 0.050279 0.117314 0.024355
-55.041531 57.708571 11.048061 178.020718 -42.419050 -2.742846 3.520488 22.434628 3.057595 1.771557 12.848649 1.611801 2.287508 16.052135 2.092282 1.777409 12.871603 1.604259 0.586534 7.926027 3.527217 -0.564032 -21.029493 6.650796 2.152941 3.113584 -0.433876 -3.822271 -17.379039 -9.125140 -29.651733 -17.643867 92.607882 -13.983031 -10.266848 -28.620801 -10.434115 -0.548559 -1.659219 -3.185750 -16.586641 14.398187 30.102785 -28.148503 -81.705964 18.123621 -0.104439 16.466137 5.874601 -29.064876 -3.641911 -34.754109 75.409147 -39.765823 6.343705 -16.565922 12.994266 0.019427 -0.165538 0.010307 -6.541907 -26.519231 5.077565 88.632676 80.953044 89.502199 0.848287 -22.212686 -19.081615 0.050099 0.116281 0.023506
-55.043028 57.706951 11.047732 178.017857 -42.380508 -2.742792 3.527431 22.418623 3.060013 1.777484 12.870806 1.609119 2.285247 16.029629 2.089859 1.776092 12.859376 1.607037 0.627725 7.896580 3.501105 -0.510404 -21.095907 6.612046 2.163216 3.125634 -0.438744 -3.822626 -17.380009 -9.129086 -29.657208 -17.616986 92.624998 -13.952039 -10.278856 -28.620509 -10.423448 -0.548601 -1.659944 -3.200934 -16.592816 14.402597 30.106289 -28.141049 -81.704740 18.154067 -0.100837 16.471506 5.880481 -29.103128 -3.643184 -34.763539 75.408369 -39.774588 6.349745 -16.569102 12.994651 0.026978 -0.162201 0.011543 -6.535268 -26.557341 5.078999 88.643298 80.951773 89.520768 0.849982 -22.223270 -19.080812 0.050694 0.123081 0.021714
-55.044499 57.707167 11.045076 178.019939 -42.359521 -2.744103 3.527454 22.420816 3.058628 1.780671 12.869563 1.610700 2.286811 16.029603 2.086033 1.775310 12.847932 1.608344 0.652443 7.876843 3.487844 -0.432781 -21.159865 6.555752 2.168949 3.138618 -0.437326 -3.812235 -17.361290 -9.146547 -29.677034 -17.613125 92.658216 -13.927605 -10.288465 -28.622254 -10.421469 -0.555579 -1.657321 -3.206174 -16.591465 14.402996 30.109506 -28.138377 -81.703489 18.161284 -0.100256 16.472760 5.884013 -29.120189 -3.646320 -34.761448 75.407227 -39.769666 6.350069 -16.572108 12.995309 0.035354 -0.158389 0.012629 -6.532114 -26.579159 5.078441 88.657652 80.950685 89.540753 0.848170 -22.224328 -19.084007 0.048444 0.121262 0.024658
